<mxfile host="app.diagrams.net" modified="2022-06-09T09:17:07.206Z" agent="5.0 (Macintosh; Intel Mac OS X 10_15_7) AppleWebKit/537.36 (KHTML, like Gecko) Chrome/101.0.4951.64 Safari/537.36" etag="PdLFctqdoFWKwGrZxfBf" version="19.0.3" type="github">
  <diagram id="iyLQmEOsxrk-CMSI-dQm" name="Page-1">
    <mxGraphModel dx="757" dy="683" grid="1" gridSize="10" guides="1" tooltips="1" connect="1" arrows="1" fold="1" page="1" pageScale="1" pageWidth="827" pageHeight="1169" math="0" shadow="0">
      <root>
        <mxCell id="0" />
        <mxCell id="1" parent="0" />
        <mxCell id="G1_-IMRu4D6T0uyCzRbB-1" value="í ¾í´ž" style="rounded=0;whiteSpace=wrap;html=1;" parent="1" vertex="1">
          <mxGeometry x="40" y="370" width="120" height="60" as="geometry" />
        </mxCell>
        <mxCell id="tPFRxrQn2vlUd9tv-zIa-1" value="í ¾í´ž" style="rounded=0;whiteSpace=wrap;html=1;" vertex="1" parent="1">
          <mxGeometry x="190" y="370" width="120" height="60" as="geometry" />
        </mxCell>
      </root>
    </mxGraphModel>
  </diagram>
</mxfile>
